<?xml version="1.0" standalone="no"?>
<!DOCTYPE svg PUBLIC "-//W3C//DTD SVG 20010904//EN"
 "http://www.w3.org/TR/2001/REC-SVG-20010904/DTD/svg10.dtd">
<svg version="1.0" xmlns="http://www.w3.org/2000/svg"
 width="512.000000pt" height="512.000000pt" viewBox="0 0 512.000000 512.000000"
 preserveAspectRatio="xMidYMid meet">
<metadata>
Created by potrace 1.14, written by Peter Selinger 2001-2017
</metadata>
<g transform="translate(0.000000,512.000000) scale(0.100000,-0.100000)"
fill="#000000" stroke="none">
<path d="M160 2890 l0 -880 180 0 180 0 0 205 c0 113 3 205 8 205 4 0 99 -92
212 -205 l205 -205 230 0 230 0 -272 273 -272 272 247 250 247 250 -235 3
-234 2 -183 -182 -183 -183 0 538 0 537 -180 0 -180 0 0 -880z"/>
<path d="M2620 2890 l0 -880 185 0 185 0 0 880 0 880 -185 0 -185 0 0 -880z"/>
<path d="M1815 3080 c-72 -15 -154 -51 -212 -94 -234 -172 -306 -443 -186
-694 38 -79 168 -209 251 -250 193 -95 475 -78 652 41 54 36 160 146 160 167
0 3 -58 34 -129 70 l-130 64 -40 -37 c-69 -63 -95 -72 -202 -72 -89 0 -99 2
-145 30 -55 34 -94 97 -94 152 l0 33 382 0 381 0 -6 94 c-7 100 -33 194 -72
260 -66 111 -199 201 -340 231 -75 16 -204 18 -270 5z m184 -231 c58 -13 97
-42 121 -89 37 -72 43 -70 -175 -70 -215 0 -209 -2 -181 64 18 44 73 85 127
95 60 12 58 12 108 0z"/>
<path d="M3755 3076 c-60 -19 -105 -44 -157 -88 l-48 -39 0 55 0 56 -180 0
-180 0 0 -525 0 -525 180 0 179 0 3 328 3 329 25 37 c94 139 286 134 351 -9
17 -36 19 -71 19 -362 l0 -323 180 0 181 0 -3 403 -3 402 -34 63 c-40 74 -80
111 -161 152 -110 56 -262 75 -355 46z"/>
<path d="M4644 2434 c-47 -17 -105 -69 -131 -117 -12 -21 -17 -56 -18 -103 0
-61 4 -77 30 -119 19 -31 49 -61 79 -80 43 -26 59 -30 121 -30 62 0 78 4 121
30 30 19 60 49 79 79 26 43 30 59 30 120 -1 81 -14 114 -72 170 -62 60 -155
80 -239 50z"/>
</g>
</svg>
